<svg width="76" height="76" viewBox="0 0 76 76" fill="none" xmlns="http://www.w3.org/2000/svg">
<path d="M27.56 21.2H28.68L29.04 30.4H27.56C26.9733 28.0533 25.84 26.2133 24.16 24.88C22.48 23.5467 20.4533 22.88 18.08 22.88C16.4533 22.88 15 23.2 13.72 23.84C12.44 24.48 11.36 25.4 10.48 26.6C9.6 27.8 8.92 29.2667 8.44 31C7.98667 32.7333 7.76 34.6933 7.76 36.88C7.76 41.1733 8.65333 44.48 10.44 46.8C12.2267 49.0933 14.8133 50.24 18.2 50.24C23.3467 50.24 26.6533 47.5067 28.12 42.04H29.76V52H28.36L27.44 48.84C24.64 51.2133 21.2533 52.4 17.28 52.4C15.0133 52.4 12.96 52.04 11.12 51.32C9.30667 50.6 7.74667 49.5867 6.44 48.28C5.16 46.9467 4.16 45.3333 3.44 43.44C2.74667 41.5467 2.4 39.44 2.4 37.12C2.4 34.6933 2.77333 32.48 3.52 30.48C4.26667 28.48 5.30667 26.76 6.64 25.32C8 23.88 9.61333 22.7733 11.48 22C13.3733 21.2 15.4533 20.8 17.72 20.8C19.32 20.8 20.8267 21.0267 22.24 21.48C23.6533 21.9333 25.1867 22.6667 26.84 23.68L27.56 21.2ZM54.0703 44.84L64.4703 21.2H73.4303V22.72C72.577 22.7467 71.8836 22.8533 71.3503 23.04C70.8436 23.2267 70.4436 23.5467 70.1503 24C69.8836 24.4267 69.697 25.0267 69.5903 25.8C69.5103 26.5733 69.4703 27.56 69.4703 28.76V44.44C69.4703 45.7733 69.5236 46.8267 69.6303 47.6C69.737 48.3733 69.937 48.9733 70.2303 49.4C70.5503 49.8267 70.9903 50.1067 71.5503 50.24C72.137 50.3733 72.897 50.4533 73.8303 50.48V52H60.8703V50.48C61.8036 50.4533 62.5503 50.3733 63.1103 50.24C63.697 50.08 64.1503 49.8 64.4703 49.4C64.7903 49 65.0036 48.44 65.1103 47.72C65.217 46.9733 65.2703 45.9733 65.2703 44.72V26.16H64.8703L53.1903 52.4H52.3103L40.8303 26.16H40.6703V44.44C40.6703 45.7733 40.7236 46.8267 40.8303 47.6C40.937 48.3733 41.137 48.9733 41.4303 49.4C41.7503 49.8267 42.1903 50.1067 42.7503 50.24C43.337 50.3733 44.097 50.4533 45.0303 50.48V52H33.8703V50.48C34.8036 50.4533 35.5503 50.3733 36.1103 50.24C36.697 50.08 37.1503 49.8 37.4703 49.4C37.7903 49 38.0036 48.44 38.1103 47.72C38.217 46.9733 38.2703 45.9733 38.2703 44.72V28.48C38.2703 27.36 38.217 26.44 38.1103 25.72C38.0303 24.9733 37.8436 24.3867 37.5503 23.96C37.2836 23.5333 36.8836 23.24 36.3503 23.08C35.817 22.8933 35.1236 22.7733 34.2703 22.72V21.2H43.8303L53.9103 44.84H54.0703Z" fill="#FAFAFA"/>
</svg>
