<svg width="72" height="33" viewBox="0 0 72 33" fill="none" xmlns="http://www.w3.org/2000/svg">
<path d="M25.56 1.2H26.68L27.04 10.4H25.56C24.9733 8.05333 23.84 6.21333 22.16 4.88C20.48 3.54667 18.4533 2.88 16.08 2.88C14.4533 2.88 13 3.2 11.72 3.84C10.44 4.48 9.36 5.4 8.48 6.6C7.6 7.8 6.92 9.26667 6.44 11C5.98667 12.7333 5.76 14.6933 5.76 16.88C5.76 21.1733 6.65333 24.48 8.44 26.8C10.2267 29.0933 12.8133 30.24 16.2 30.24C21.3467 30.24 24.6533 27.5067 26.12 22.04H27.76V32H26.36L25.44 28.84C22.64 31.2133 19.2533 32.4 15.28 32.4C13.0133 32.4 10.96 32.04 9.12 31.32C7.30667 30.6 5.74667 29.5867 4.44 28.28C3.16 26.9467 2.16 25.3333 1.44 23.44C0.746667 21.5467 0.4 19.44 0.4 17.12C0.4 14.6933 0.773333 12.48 1.52 10.48C2.26667 8.48 3.30667 6.76 4.64 5.32C6 3.88 7.61333 2.77333 9.48 2C11.3733 1.2 13.4533 0.799999 15.72 0.799999C17.32 0.799999 18.8267 1.02667 20.24 1.48C21.6533 1.93333 23.1867 2.66667 24.84 3.68L25.56 1.2ZM52.0703 24.84L62.4703 1.2H71.4303V2.72C70.577 2.74667 69.8836 2.85333 69.3503 3.04C68.8436 3.22667 68.4436 3.54667 68.1503 4C67.8836 4.42667 67.697 5.02667 67.5903 5.8C67.5103 6.57333 67.4703 7.56 67.4703 8.76V24.44C67.4703 25.7733 67.5236 26.8267 67.6303 27.6C67.737 28.3733 67.937 28.9733 68.2303 29.4C68.5503 29.8267 68.9903 30.1067 69.5503 30.24C70.137 30.3733 70.897 30.4533 71.8303 30.48V32H58.8703V30.48C59.8036 30.4533 60.5503 30.3733 61.1103 30.24C61.697 30.08 62.1503 29.8 62.4703 29.4C62.7903 29 63.0036 28.44 63.1103 27.72C63.217 26.9733 63.2703 25.9733 63.2703 24.72V6.16H62.8703L51.1903 32.4H50.3103L38.8303 6.16H38.6703V24.44C38.6703 25.7733 38.7236 26.8267 38.8303 27.6C38.937 28.3733 39.137 28.9733 39.4303 29.4C39.7503 29.8267 40.1903 30.1067 40.7503 30.24C41.337 30.3733 42.097 30.4533 43.0303 30.48V32H31.8703V30.48C32.8036 30.4533 33.5503 30.3733 34.1103 30.24C34.697 30.08 35.1503 29.8 35.4703 29.4C35.7903 29 36.0036 28.44 36.1103 27.72C36.217 26.9733 36.2703 25.9733 36.2703 24.72V8.48C36.2703 7.36 36.217 6.44 36.1103 5.72C36.0303 4.97333 35.8436 4.38666 35.5503 3.96C35.2836 3.53333 34.8836 3.24 34.3503 3.08C33.817 2.89333 33.1236 2.77333 32.2703 2.72V1.2H41.8303L51.9103 24.84H52.0703Z" fill="#18181B"/>
</svg>
