<svg width="461" height="33" viewBox="0 0 461 33" fill="none" xmlns="http://www.w3.org/2000/svg">
<path d="M25.56 1.2H26.68L27.04 10.4H25.56C24.9733 8.05333 23.84 6.21333 22.16 4.88C20.48 3.54667 18.4533 2.88 16.08 2.88C14.4533 2.88 13 3.2 11.72 3.84C10.44 4.48 9.36 5.4 8.48 6.6C7.6 7.8 6.92 9.26667 6.44 11C5.98667 12.7333 5.76 14.6933 5.76 16.88C5.76 21.1733 6.65333 24.48 8.44 26.8C10.2267 29.0933 12.8133 30.24 16.2 30.24C21.3467 30.24 24.6533 27.5067 26.12 22.04H27.76V32H26.36L25.44 28.84C22.64 31.2133 19.2533 32.4 15.28 32.4C13.0133 32.4 10.96 32.04 9.12 31.32C7.30667 30.6 5.74667 29.5867 4.44 28.28C3.16 26.9467 2.16 25.3333 1.44 23.44C0.746667 21.5467 0.4 19.44 0.4 17.12C0.4 14.6933 0.773333 12.48 1.52 10.48C2.26667 8.48 3.30667 6.76 4.64 5.32C6 3.88 7.61333 2.77333 9.48 2C11.3733 1.2 13.4533 0.799999 15.72 0.799999C17.32 0.799999 18.8267 1.02667 20.24 1.48C21.6533 1.93333 23.1867 2.66667 24.84 3.68L25.56 1.2ZM48.9903 0.799999C51.337 0.799999 53.5236 1.21333 55.5503 2.04C57.577 2.86667 59.337 4 60.8303 5.44C62.3236 6.88 63.497 8.57333 64.3503 10.52C65.2036 12.4667 65.6303 14.5733 65.6303 16.84C65.6303 19 65.1903 21.0267 64.3103 22.92C63.457 24.8133 62.2836 26.4667 60.7903 27.88C59.297 29.2667 57.537 30.3733 55.5103 31.2C53.4836 32 51.3103 32.4 48.9903 32.4C46.6703 32.4 44.497 32 42.4703 31.2C40.4436 30.3733 38.6836 29.2667 37.1903 27.88C35.697 26.4667 34.5103 24.8133 33.6303 22.92C32.777 21.0267 32.3503 19 32.3503 16.84C32.3503 14.5733 32.777 12.4667 33.6303 10.52C34.4836 8.57333 35.657 6.88 37.1503 5.44C38.6436 4 40.4036 2.86667 42.4303 2.04C44.457 1.21333 46.6436 0.799999 48.9903 0.799999ZM48.9903 30.2C50.7503 30.2 52.3236 29.8933 53.7103 29.28C55.1236 28.6667 56.3236 27.7867 57.3103 26.64C58.3236 25.4933 59.097 24.1067 59.6303 22.48C60.1636 20.8267 60.4303 18.9867 60.4303 16.96C60.4303 14.8267 60.1636 12.9067 59.6303 11.2C59.097 9.46667 58.337 8 57.3503 6.8C56.3636 5.57333 55.1636 4.64 53.7503 4C52.337 3.33333 50.7503 3 48.9903 3C47.2303 3 45.6436 3.33333 44.2303 4C42.817 4.64 41.617 5.57333 40.6303 6.8C39.6436 8 38.8836 9.46667 38.3503 11.2C37.817 12.9067 37.5503 14.8267 37.5503 16.96C37.5503 18.9867 37.817 20.8267 38.3503 22.48C38.8836 24.1067 39.6436 25.4933 40.6303 26.64C41.617 27.7867 42.817 28.6667 44.2303 29.28C45.6436 29.8933 47.2303 30.2 48.9903 30.2ZM95.1741 32.4L76.1741 7.36H76.0141V24.44C76.0141 25.7733 76.0541 26.8267 76.1341 27.6C76.2407 28.3733 76.4274 28.9733 76.6941 29.4C76.9874 29.8267 77.3874 30.1067 77.8941 30.24C78.4274 30.3733 79.1207 30.4533 79.9741 30.48V32H69.2141V30.48C70.1474 30.4533 70.8941 30.3733 71.4541 30.24C72.0407 30.08 72.4941 29.8 72.8141 29.4C73.1341 29 73.3474 28.44 73.4541 27.72C73.5607 26.9733 73.6141 25.9733 73.6141 24.72V8.48C73.6141 7.36 73.5607 6.44 73.4541 5.72C73.3741 4.97333 73.1874 4.38666 72.8941 3.96C72.6274 3.53333 72.2274 3.24 71.6941 3.08C71.1607 2.89333 70.4674 2.77333 69.6141 2.72V1.2H77.5341L95.0141 24.52H95.1741V8.76C95.1741 7.45333 95.1207 6.41333 95.0141 5.64C94.9341 4.84 94.7474 4.22667 94.4541 3.8C94.1874 3.37333 93.7874 3.09333 93.2541 2.96C92.7474 2.82667 92.0674 2.74667 91.2141 2.72V1.2H101.974V2.72C101.041 2.74667 100.281 2.84 99.6941 3C99.1341 3.13333 98.6941 3.4 98.3741 3.8C98.0541 4.2 97.8407 4.77333 97.7341 5.52C97.6274 6.26667 97.5741 7.25333 97.5741 8.48V32.4H95.1741ZM113.908 15.08C115.348 15.08 116.548 15 117.508 14.84C118.494 14.6533 119.268 14.3733 119.828 14C120.414 13.6267 120.828 13.1467 121.068 12.56C121.334 11.9733 121.468 11.28 121.468 10.48H122.868V21.4H121.468C121.468 20.6 121.348 19.9067 121.108 19.32C120.894 18.7333 120.494 18.2533 119.908 17.88C119.348 17.48 118.574 17.1867 117.588 17C116.628 16.7867 115.401 16.68 113.908 16.68V25.72C113.908 26.6 114.014 27.3333 114.228 27.92C114.441 28.48 114.801 28.9467 115.308 29.32C115.841 29.6667 116.534 29.92 117.388 30.08C118.241 30.2133 119.294 30.28 120.548 30.28C121.961 30.28 123.161 30.1867 124.148 30C125.134 29.7867 125.961 29.44 126.628 28.96C127.294 28.48 127.828 27.8533 128.228 27.08C128.628 26.28 128.961 25.2933 129.228 24.12H130.748L130.148 32H105.308V30.48C106.241 30.4533 106.988 30.3733 107.548 30.24C108.134 30.1067 108.588 29.88 108.908 29.56C109.228 29.24 109.441 28.7867 109.548 28.2C109.654 27.6133 109.708 26.8533 109.708 25.92V7.28C109.708 6.34666 109.654 5.6 109.548 5.04C109.468 4.45333 109.281 4 108.988 3.68C108.721 3.33333 108.321 3.10667 107.788 3C107.254 2.86667 106.561 2.77333 105.708 2.72V1.2H128.828L129.188 8.24H127.788C127.628 7.17333 127.361 6.30667 126.988 5.64C126.641 4.94666 126.148 4.4 125.508 4C124.894 3.6 124.108 3.32 123.148 3.16C122.188 3 121.028 2.92 119.668 2.92H114.588C114.134 2.92 113.908 3.14666 113.908 3.6V15.08ZM160.091 1.2H161.211L161.571 10.4H160.091C159.505 8.05333 158.371 6.21333 156.691 4.88C155.011 3.54667 152.985 2.88 150.611 2.88C148.985 2.88 147.531 3.2 146.251 3.84C144.971 4.48 143.891 5.4 143.011 6.6C142.131 7.8 141.451 9.26667 140.971 11C140.518 12.7333 140.291 14.6933 140.291 16.88C140.291 21.1733 141.185 24.48 142.971 26.8C144.758 29.0933 147.345 30.24 150.731 30.24C155.878 30.24 159.185 27.5067 160.651 22.04H162.291V32H160.891L159.971 28.84C157.171 31.2133 153.785 32.4 149.811 32.4C147.545 32.4 145.491 32.04 143.651 31.32C141.838 30.6 140.278 29.5867 138.971 28.28C137.691 26.9467 136.691 25.3333 135.971 23.44C135.278 21.5467 134.931 19.44 134.931 17.12C134.931 14.6933 135.305 12.48 136.051 10.48C136.798 8.48 137.838 6.76 139.171 5.32C140.531 3.88 142.145 2.77333 144.011 2C145.905 1.2 147.985 0.799999 150.251 0.799999C151.851 0.799999 153.358 1.02667 154.771 1.48C156.185 1.93333 157.718 2.66667 159.371 3.68L160.091 1.2ZM196.042 8.84H194.402C194.322 7.69333 194.135 6.73333 193.842 5.96C193.548 5.18667 193.122 4.58667 192.562 4.16C192.028 3.70666 191.348 3.38666 190.522 3.2C189.695 3.01333 188.708 2.92 187.562 2.92C186.575 2.92 185.775 2.94666 185.162 3C184.575 3.02667 184.122 3.09333 183.802 3.2C183.482 3.30667 183.268 3.44 183.162 3.6C183.082 3.73333 183.042 3.92 183.042 4.16V25.56C183.042 26.4133 183.095 27.1467 183.202 27.76C183.335 28.3733 183.575 28.88 183.922 29.28C184.295 29.6533 184.815 29.9467 185.482 30.16C186.175 30.3467 187.082 30.4533 188.202 30.48V32H173.082V30.48C174.202 30.4533 175.108 30.3467 175.802 30.16C176.495 29.9467 177.015 29.6533 177.362 29.28C177.735 28.88 177.975 28.3733 178.082 27.76C178.215 27.1467 178.282 26.4133 178.282 25.56V4.16C178.282 3.92 178.228 3.73333 178.122 3.6C178.042 3.44 177.855 3.30667 177.562 3.2C177.295 3.09333 176.908 3.02667 176.402 3C175.895 2.94666 175.215 2.92 174.362 2.92C173.322 2.92 172.348 2.96 171.442 3.04C170.562 3.12 169.788 3.36 169.122 3.76C168.482 4.13333 167.962 4.72 167.562 5.52C167.162 6.32 166.948 7.42667 166.922 8.84H165.442V1.2H195.642L196.042 8.84ZM213.301 20.84H202.621C202.168 21.9333 201.781 22.9067 201.461 23.76C201.141 24.5867 200.875 25.3067 200.661 25.92C200.475 26.5333 200.341 27.0533 200.261 27.48C200.181 27.9067 200.141 28.2533 200.141 28.52C200.141 29.2667 200.381 29.7867 200.861 30.08C201.341 30.3467 202.141 30.48 203.261 30.48V32H193.541V30.48C194.155 30.4 194.675 30.2933 195.101 30.16C195.555 30.0267 195.941 29.84 196.261 29.6C196.608 29.36 196.901 29.0533 197.141 28.68C197.408 28.28 197.661 27.8 197.901 27.24L208.301 1.2H210.021L219.101 23.76C219.715 25.2533 220.248 26.4533 220.701 27.36C221.155 28.24 221.595 28.9067 222.021 29.36C222.448 29.8133 222.901 30.1067 223.381 30.24C223.888 30.3733 224.488 30.44 225.181 30.44V32H212.141V30.44C213.555 30.44 214.528 30.3067 215.061 30.04C215.595 29.7733 215.861 29.3333 215.861 28.72C215.861 28.4533 215.848 28.2133 215.821 28C215.795 27.76 215.741 27.5067 215.661 27.24C215.608 26.9733 215.515 26.68 215.381 26.36C215.275 26.0133 215.128 25.6133 214.941 25.16L213.301 20.84ZM203.421 18.84H212.541L208.101 7.04L203.421 18.84ZM256.523 24.84L266.923 1.2H275.883V2.72C275.03 2.74667 274.337 2.85333 273.803 3.04C273.297 3.22667 272.897 3.54667 272.603 4C272.337 4.42667 272.15 5.02667 272.043 5.8C271.963 6.57333 271.923 7.56 271.923 8.76V24.44C271.923 25.7733 271.977 26.8267 272.083 27.6C272.19 28.3733 272.39 28.9733 272.683 29.4C273.003 29.8267 273.443 30.1067 274.003 30.24C274.59 30.3733 275.35 30.4533 276.283 30.48V32H263.323V30.48C264.257 30.4533 265.003 30.3733 265.563 30.24C266.15 30.08 266.603 29.8 266.923 29.4C267.243 29 267.457 28.44 267.563 27.72C267.67 26.9733 267.723 25.9733 267.723 24.72V6.16H267.323L255.643 32.4H254.763L243.283 6.16H243.123V24.44C243.123 25.7733 243.177 26.8267 243.283 27.6C243.39 28.3733 243.59 28.9733 243.883 29.4C244.203 29.8267 244.643 30.1067 245.203 30.24C245.79 30.3733 246.55 30.4533 247.483 30.48V32H236.323V30.48C237.257 30.4533 238.003 30.3733 238.563 30.24C239.15 30.08 239.603 29.8 239.923 29.4C240.243 29 240.457 28.44 240.563 27.72C240.67 26.9733 240.723 25.9733 240.723 24.72V8.48C240.723 7.36 240.67 6.44 240.563 5.72C240.483 4.97333 240.297 4.38666 240.003 3.96C239.737 3.53333 239.337 3.24 238.803 3.08C238.27 2.89333 237.577 2.77333 236.723 2.72V1.2H246.283L256.363 24.84H256.523ZM296.49 0.799999C298.837 0.799999 301.024 1.21333 303.05 2.04C305.077 2.86667 306.837 4 308.33 5.44C309.824 6.88 310.997 8.57333 311.85 10.52C312.704 12.4667 313.13 14.5733 313.13 16.84C313.13 19 312.69 21.0267 311.81 22.92C310.957 24.8133 309.784 26.4667 308.29 27.88C306.797 29.2667 305.037 30.3733 303.01 31.2C300.984 32 298.81 32.4 296.49 32.4C294.17 32.4 291.997 32 289.97 31.2C287.944 30.3733 286.184 29.2667 284.69 27.88C283.197 26.4667 282.01 24.8133 281.13 22.92C280.277 21.0267 279.85 19 279.85 16.84C279.85 14.5733 280.277 12.4667 281.13 10.52C281.984 8.57333 283.157 6.88 284.65 5.44C286.144 4 287.904 2.86667 289.93 2.04C291.957 1.21333 294.144 0.799999 296.49 0.799999ZM296.49 30.2C298.25 30.2 299.824 29.8933 301.21 29.28C302.624 28.6667 303.824 27.7867 304.81 26.64C305.824 25.4933 306.597 24.1067 307.13 22.48C307.664 20.8267 307.93 18.9867 307.93 16.96C307.93 14.8267 307.664 12.9067 307.13 11.2C306.597 9.46667 305.837 8 304.85 6.8C303.864 5.57333 302.664 4.64 301.25 4C299.837 3.33333 298.25 3 296.49 3C294.73 3 293.144 3.33333 291.73 4C290.317 4.64 289.117 5.57333 288.13 6.8C287.144 8 286.384 9.46667 285.85 11.2C285.317 12.9067 285.05 14.8267 285.05 16.96C285.05 18.9867 285.317 20.8267 285.85 22.48C286.384 24.1067 287.144 25.4933 288.13 26.64C289.117 27.7867 290.317 28.6667 291.73 29.28C293.144 29.8933 294.73 30.2 296.49 30.2ZM341.234 8.92C341.234 11.0533 340.594 12.8267 339.314 14.24C338.034 15.6533 335.994 16.6 333.194 17.08L342.034 27.72C342.754 28.6 343.541 29.24 344.394 29.64C345.274 30.0133 346.314 30.2933 347.514 30.48V32H339.794L329.994 19.44C329.647 18.9867 329.314 18.6267 328.994 18.36C328.701 18.0933 328.381 17.8933 328.034 17.76C327.714 17.6 327.327 17.5067 326.874 17.48C326.447 17.4267 325.927 17.4 325.314 17.4V25.72C325.314 26.7067 325.367 27.52 325.474 28.16C325.607 28.7733 325.861 29.2533 326.234 29.6C326.634 29.9467 327.194 30.1867 327.914 30.32C328.661 30.4267 329.634 30.48 330.834 30.48V32H316.714V30.48C317.647 30.4533 318.394 30.3733 318.954 30.24C319.541 30.1067 319.994 29.88 320.314 29.56C320.634 29.24 320.847 28.7867 320.954 28.2C321.061 27.6133 321.114 26.8533 321.114 25.92V7.28C321.114 6.34666 321.061 5.6 320.954 5.04C320.874 4.45333 320.687 4 320.394 3.68C320.127 3.33333 319.727 3.10667 319.194 3C318.661 2.86667 317.967 2.77333 317.114 2.72V1.2H329.674C333.354 1.2 336.194 1.88 338.194 3.24C340.221 4.6 341.234 6.49333 341.234 8.92ZM325.314 15.4H328.154C330.821 15.4 332.794 14.92 334.074 13.96C335.381 12.9733 336.034 11.36 336.034 9.12C336.034 6.96 335.514 5.41333 334.474 4.48C333.461 3.54667 331.861 3.08 329.674 3.08H325.994C325.541 3.08 325.314 3.30666 325.314 3.76V15.4ZM365.958 20.84H355.278C354.824 21.9333 354.438 22.9067 354.118 23.76C353.798 24.5867 353.531 25.3067 353.318 25.92C353.131 26.5333 352.998 27.0533 352.918 27.48C352.838 27.9067 352.798 28.2533 352.798 28.52C352.798 29.2667 353.038 29.7867 353.518 30.08C353.998 30.3467 354.798 30.48 355.918 30.48V32H346.197V30.48C346.811 30.4 347.331 30.2933 347.757 30.16C348.211 30.0267 348.598 29.84 348.918 29.6C349.264 29.36 349.558 29.0533 349.798 28.68C350.064 28.28 350.318 27.8 350.558 27.24L360.958 1.2H362.678L371.758 23.76C372.371 25.2533 372.904 26.4533 373.358 27.36C373.811 28.24 374.251 28.9067 374.678 29.36C375.104 29.8133 375.558 30.1067 376.038 30.24C376.544 30.3733 377.144 30.44 377.838 30.44V32H364.798V30.44C366.211 30.44 367.184 30.3067 367.718 30.04C368.251 29.7733 368.518 29.3333 368.518 28.72C368.518 28.4533 368.504 28.2133 368.477 28C368.451 27.76 368.398 27.5067 368.318 27.24C368.264 26.9733 368.171 26.68 368.038 26.36C367.931 26.0133 367.784 25.6133 367.598 25.16L365.958 20.84ZM356.078 18.84H365.198L360.758 7.04L356.078 18.84ZM378.856 32V30.48C379.869 30.4533 380.683 30.3867 381.296 30.28C381.936 30.1467 382.429 29.92 382.776 29.6C383.123 29.2533 383.349 28.8 383.456 28.24C383.589 27.6533 383.656 26.88 383.656 25.92V7.28C383.656 6.34666 383.603 5.6 383.496 5.04C383.416 4.45333 383.229 4 382.936 3.68C382.669 3.33333 382.269 3.10667 381.736 3C381.203 2.86667 380.509 2.77333 379.656 2.72V1.2H393.696C396.096 1.2 398.309 1.6 400.336 2.4C402.389 3.2 404.149 4.30667 405.616 5.72C407.109 7.13333 408.269 8.81333 409.096 10.76C409.923 12.7067 410.336 14.8267 410.336 17.12C410.336 19.3067 409.949 21.32 409.176 23.16C408.403 24.9733 407.309 26.5333 405.896 27.84C404.509 29.1467 402.843 30.1733 400.896 30.92C398.949 31.64 396.816 32 394.496 32H378.856ZM388.536 3.16C388.083 3.16 387.856 3.38667 387.856 3.84V25.48C387.856 28.52 389.843 30.04 393.816 30.04C397.469 30.04 400.269 28.96 402.216 26.8C404.163 24.6133 405.136 21.4133 405.136 17.2C405.136 14.9867 404.869 13.0133 404.336 11.28C403.803 9.54667 403.029 8.08 402.016 6.88C401.029 5.68 399.829 4.76 398.416 4.12C397.003 3.48 395.403 3.16 393.616 3.16H388.536ZM422.58 24.44C422.58 25.7733 422.633 26.8267 422.74 27.6C422.846 28.3733 423.046 28.9733 423.34 29.4C423.66 29.8267 424.1 30.1067 424.66 30.24C425.246 30.3733 426.006 30.4533 426.94 30.48V32H413.98V30.48C414.913 30.4533 415.66 30.3733 416.22 30.24C416.806 30.08 417.26 29.8 417.58 29.4C417.9 29 418.113 28.44 418.22 27.72C418.326 26.9733 418.38 25.9733 418.38 24.72V8.48C418.38 7.36 418.326 6.44 418.22 5.72C418.14 4.97333 417.953 4.38666 417.66 3.96C417.393 3.53333 416.993 3.24 416.46 3.08C415.926 2.89333 415.233 2.77333 414.38 2.72V1.2H426.54V2.72C425.686 2.74667 424.993 2.85333 424.46 3.04C423.953 3.22667 423.553 3.54667 423.26 4C422.993 4.42667 422.806 5.02667 422.7 5.8C422.62 6.57333 422.58 7.56 422.58 8.76V24.44ZM448.301 20.84H437.621C437.168 21.9333 436.781 22.9067 436.461 23.76C436.141 24.5867 435.875 25.3067 435.661 25.92C435.475 26.5333 435.341 27.0533 435.261 27.48C435.181 27.9067 435.141 28.2533 435.141 28.52C435.141 29.2667 435.381 29.7867 435.861 30.08C436.341 30.3467 437.141 30.48 438.261 30.48V32H428.541V30.48C429.155 30.4 429.675 30.2933 430.101 30.16C430.555 30.0267 430.941 29.84 431.261 29.6C431.608 29.36 431.901 29.0533 432.141 28.68C432.408 28.28 432.661 27.8 432.901 27.24L443.301 1.2H445.021L454.101 23.76C454.715 25.2533 455.248 26.4533 455.701 27.36C456.155 28.24 456.595 28.9067 457.021 29.36C457.448 29.8133 457.901 30.1067 458.381 30.24C458.888 30.3733 459.488 30.44 460.181 30.44V32H447.141V30.44C448.555 30.44 449.528 30.3067 450.061 30.04C450.595 29.7733 450.861 29.3333 450.861 28.72C450.861 28.4533 450.848 28.2133 450.821 28C450.795 27.76 450.741 27.5067 450.661 27.24C450.608 26.9733 450.515 26.68 450.381 26.36C450.275 26.0133 450.128 25.6133 449.941 25.16L448.301 20.84ZM438.421 18.84H447.541L443.101 7.04L438.421 18.84Z" fill="#FAFAFA"/>
</svg>
