<svg width="76" height="67" viewBox="0 0 76 67" fill="none" xmlns="http://www.w3.org/2000/svg">
<path d="M27.56 17.2H28.68L29.04 26.4H27.56C26.9733 24.0533 25.84 22.2133 24.16 20.88C22.48 19.5467 20.4533 18.88 18.08 18.88C16.4533 18.88 15 19.2 13.72 19.84C12.44 20.48 11.36 21.4 10.48 22.6C9.6 23.8 8.92 25.2667 8.44 27C7.98667 28.7333 7.76 30.6933 7.76 32.88C7.76 37.1733 8.65333 40.48 10.44 42.8C12.2267 45.0933 14.8133 46.24 18.2 46.24C23.3467 46.24 26.6533 43.5067 28.12 38.04H29.76V48H28.36L27.44 44.84C24.64 47.2133 21.2533 48.4 17.28 48.4C15.0133 48.4 12.96 48.04 11.12 47.32C9.30667 46.6 7.74667 45.5867 6.44 44.28C5.16 42.9467 4.16 41.3333 3.44 39.44C2.74667 37.5467 2.4 35.44 2.4 33.12C2.4 30.6933 2.77333 28.48 3.52 26.48C4.26667 24.48 5.30667 22.76 6.64 21.32C8 19.88 9.61333 18.7733 11.48 18C13.3733 17.2 15.4533 16.8 17.72 16.8C19.32 16.8 20.8267 17.0267 22.24 17.48C23.6533 17.9333 25.1867 18.6667 26.84 19.68L27.56 17.2ZM54.0703 40.84L64.4703 17.2H73.4303V18.72C72.577 18.7467 71.8836 18.8533 71.3503 19.04C70.8436 19.2267 70.4436 19.5467 70.1503 20C69.8836 20.4267 69.697 21.0267 69.5903 21.8C69.5103 22.5733 69.4703 23.56 69.4703 24.76V40.44C69.4703 41.7733 69.5236 42.8267 69.6303 43.6C69.737 44.3733 69.937 44.9733 70.2303 45.4C70.5503 45.8267 70.9903 46.1067 71.5503 46.24C72.137 46.3733 72.897 46.4533 73.8303 46.48V48H60.8703V46.48C61.8036 46.4533 62.5503 46.3733 63.1103 46.24C63.697 46.08 64.1503 45.8 64.4703 45.4C64.7903 45 65.0036 44.44 65.1103 43.72C65.217 42.9733 65.2703 41.9733 65.2703 40.72V22.16H64.8703L53.1903 48.4H52.3103L40.8303 22.16H40.6703V40.44C40.6703 41.7733 40.7236 42.8267 40.8303 43.6C40.937 44.3733 41.137 44.9733 41.4303 45.4C41.7503 45.8267 42.1903 46.1067 42.7503 46.24C43.337 46.3733 44.097 46.4533 45.0303 46.48V48H33.8703V46.48C34.8036 46.4533 35.5503 46.3733 36.1103 46.24C36.697 46.08 37.1503 45.8 37.4703 45.4C37.7903 45 38.0036 44.44 38.1103 43.72C38.217 42.9733 38.2703 41.9733 38.2703 40.72V24.48C38.2703 23.36 38.217 22.44 38.1103 21.72C38.0303 20.9733 37.8436 20.3867 37.5503 19.96C37.2836 19.5333 36.8836 19.24 36.3503 19.08C35.817 18.8933 35.1236 18.7733 34.2703 18.72V17.2H43.8303L53.9103 40.84H54.0703Z" fill="#18181B"/>
</svg>
